HIERARCHY
ROOT hip
{
	OFFSET 0.000000 0.000000 0.000000 
	CHANNELS 6 Xposition Yposition Zposition Xrotation Zrotation Yrotation
	JOINT abdomen
	{
		OFFSET 0.000000 3.402643 0.000000 
		CHANNELS 3 Xrotation Zrotation Yrotation
		JOINT chest
		{
			OFFSET 0.000000 8.438565 -0.680529 
			CHANNELS 3 Xrotation Zrotation Yrotation
			JOINT neck
			{
				OFFSET 0.000000 10.207942 -0.272212 
				CHANNELS 3 Xrotation Zrotation Yrotation
				JOINT head
				{
					OFFSET 0.000000 3.130431 0.000000 
					CHANNELS 3 Xrotation Zrotation Yrotation
					End Site
					{
						OFFSET 0.000000 3.130435 0.000000 
					}
				}
			}
			JOINT lCollar
			{
				OFFSET 3.470700 6.669187 -0.816635 
				CHANNELS 3 Yrotation Zrotation Xrotation
				JOINT lShldr
				{
					OFFSET 3.198488 0.000000 0.000000 
					CHANNELS 3 Zrotation Yrotation Xrotation
					JOINT lForeArm
					{
						OFFSET 10.139888 0.000000 0.000000 
						CHANNELS 3 Yrotation Zrotation Xrotation
						JOINT lHand
						{
							OFFSET 8.370511 0.000000 0.000000 
							CHANNELS 3 Zrotation Yrotation Xrotation
							End Site
							{
								OFFSET 4.083176 0.000000 0.000000 
							}
						}
					}
				}
			}
			JOINT rCollar
			{
				OFFSET -3.470700 6.669187 -0.816635 
				CHANNELS 3 Yrotation Zrotation Xrotation
				JOINT rShldr
				{
					OFFSET -3.198488 0.000000 0.000000 
					CHANNELS 3 Zrotation Yrotation Xrotation
					JOINT rForeArm
					{
						OFFSET -10.139888 0.000000 0.000000 
						CHANNELS 3 Yrotation Zrotation Xrotation
						JOINT rHand
						{
							OFFSET -8.370511 0.000000 0.000000 
							CHANNELS 3 Zrotation Yrotation Xrotation
							End Site
							{
								OFFSET -4.083176 0.000000 0.000000 
							}
						}
					}
				}
			}
		}
	}
	JOINT lThigh
	{
		OFFSET 5.308129 -1.633274 1.361059 
		CHANNELS 3 Xrotation Zrotation Yrotation
		JOINT lShin
		{
			OFFSET -2.041588 -20.007561 0.000000 
			CHANNELS 3 Xrotation Zrotation Yrotation
			JOINT lFoot
			{
				OFFSET 0.000000 -19.190928 -1.224953 
				CHANNELS 3 Xrotation Yrotation Zrotation
				End Site
				{
					OFFSET 0.000000 -2.449906 4.627600 
				}
			}
		}
	}
	JOINT rThigh
	{
		OFFSET -5.308129 -1.633274 1.361059 
		CHANNELS 3 Xrotation Zrotation Yrotation
		JOINT rShin
		{
			OFFSET 2.041588 -20.007561 0.000000 
			CHANNELS 3 Xrotation Zrotation Yrotation
			JOINT rFoot
			{
				OFFSET 0.000000 -19.190928 -1.224953 
				CHANNELS 3 Xrotation Yrotation Zrotation
				End Site
				{
					OFFSET 0.000000 -2.449906 4.627600 
				}
			}
		}
	}
}
MOTION
Frames: 16
Frame Time: 0.033333
-55.738136 41.502991 86.686172 15.514392 5.989215 -142.149612 0.000000 0.000000 0.000000 35.812080 -1.310025 -6.447193 24.711958 -0.425623 -29.346628 -4.180490 18.468460 -23.420376 -17.927881 0.582107 24.990768 -9.608145 -98.113678 -32.635990 -58.967323 -4.829165 -34.649487 22.413441 15.317695 -1.293064 -2.621150 1.277763 24.992838 48.609802 58.282372 -14.484328 90.866615 0.287184 -35.717899 -55.872742 -12.399071 1.141632 -46.834202 22.313910 -4.756111 79.434357 -0.661976 -5.704382 -9.843101 -0.033560 0.318568 1.912171 -24.593899 -10.159311 -3.552798 4.047978 4.335335 13.480144 3.908919 31.994610 
-55.732388 41.556503 86.810051 15.370151 6.190349 -141.955734 0.000000 0.000000 0.000000 35.705502 -1.261890 -6.290757 24.734198 -0.187275 -29.345884 -4.697599 17.858889 -23.261631 -18.234026 1.754911 24.993130 -6.593614 -98.575348 -36.612507 -59.038605 -4.784901 -34.133942 22.118567 15.094096 -1.362502 -2.897712 1.709160 24.996918 48.548344 57.837727 -14.120769 91.074356 0.170467 -35.809582 -55.927711 -12.486876 1.198655 -47.220104 22.155558 -4.771631 79.211761 -0.633558 -5.617717 -9.315215 -0.042386 0.421730 1.317599 -24.382021 -9.899905 -3.553229 4.048626 4.354840 13.640327 3.896598 31.466208 
-55.765675 41.586552 86.920212 15.319386 6.306686 -141.866653 0.000000 0.000000 0.000000 35.657673 -1.184258 -6.280776 24.941605 -0.349412 -29.229170 -5.823677 17.862522 -23.592417 -18.144081 0.787847 24.996105 -6.428104 -98.049370 -35.881783 -59.287994 -4.608013 -34.728123 22.299044 15.696451 -1.221411 -2.788920 1.846394 24.991489 48.234898 57.704380 -14.264440 91.149445 0.116616 -35.835991 -55.971519 -12.227476 1.064070 -47.375084 22.077024 -4.792816 79.048027 -0.643106 -5.556076 -9.119030 -0.036162 0.521402 0.672522 -23.882444 -9.514070 -3.553667 4.049367 4.130142 13.959213 4.061046 32.034092 
-55.784527 41.671829 87.069977 15.320842 6.156316 -141.919128 0.000000 0.000000 0.000000 36.010853 -1.455944 -6.320529 24.862368 -0.502283 -29.337183 -6.010184 17.592693 -23.492506 -17.741638 0.577842 24.994141 -10.731574 -98.131775 -31.124319 -59.186295 -4.604987 -34.926292 22.176130 15.500908 -1.276688 -2.664191 1.624046 24.998348 47.970318 58.244473 -14.590504 91.102036 0.088925 -36.207943 -56.139767 -12.210986 1.061275 -47.142620 21.882397 -4.626006 78.667320 -0.672329 -5.292703 -8.680079 -0.063086 0.497390 -0.147576 -23.415289 -9.062245 -3.319023 4.047459 3.785881 14.525215 4.218627 32.190552 
-55.886303 42.010029 87.341400 15.214064 5.839326 -141.728638 0.000000 0.000000 0.000000 36.697025 -1.591035 -6.574873 25.527214 -0.687915 -29.582424 -7.528341 17.759329 -23.969454 -17.495630 -0.021538 24.998308 -17.868944 -98.321236 -23.406540 -58.561481 -4.690514 -35.271706 21.748375 15.447566 -1.335263 -2.463710 1.124872 24.992519 47.359978 59.063663 -15.333539 90.579048 0.083258 -36.364067 -56.737968 -11.598140 0.807767 -46.551102 21.064070 -4.116270 77.607285 -0.759563 -3.091962 -7.089670 0.038972 0.038996 -2.979044 -22.998899 -8.084972 -0.440591 4.059917 3.467208 14.764820 3.698516 28.021135 
-55.923138 42.186783 87.551682 14.291018 5.812596 -140.922699 0.000000 0.000000 0.000000 36.598915 -1.647771 -7.004941 25.722565 -0.716088 -30.383486 -8.829758 17.258749 -24.407047 -18.378225 0.029516 24.995958 -21.323969 -98.101494 -19.909706 -58.570927 -4.666322 -35.581253 22.179995 15.562330 -1.268386 -2.829576 0.846230 24.992744 47.126141 59.107761 -15.859695 90.345039 0.158705 -36.786694 -56.634182 -11.497690 0.737696 -46.966911 19.978535 -3.729564 76.422302 -0.847477 -3.189804 -6.412189 0.006788 0.536580 -4.677751 -23.208345 -7.687831 2.298990 4.043361 3.266955 13.276392 3.003433 25.264080 
-55.979984 42.288086 87.729134 13.803395 6.015799 -140.619858 0.000000 0.000000 0.000000 36.607685 -1.628215 -7.053747 25.774202 -0.855325 -30.833990 -9.704585 16.523348 -24.859053 -18.218346 -0.173020 24.994949 -25.228924 -98.712700 -15.361515 -58.082947 -4.655724 -35.967712 22.231365 15.408607 -1.290909 -3.182462 0.401152 24.990114 47.217762 59.589588 -15.998067 90.278229 0.159963 -37.314358 -56.665028 -11.478558 0.732389 -47.190895 19.548668 -3.621418 75.770645 -0.905884 -3.129058 -6.409620 -0.024205 0.757558 -9.061906 -23.483116 -6.363606 9.790800 3.963162 4.080159 9.689400 1.912434 21.855371 
-56.029362 42.358120 87.850990 13.710630 5.928633 -140.578583 0.000000 0.000000 0.000000 36.934765 -1.812165 -7.103453 25.819811 -1.296818 -31.053766 -10.007163 15.841861 -25.054237 -18.467916 -0.104676 24.995459 -29.735867 -98.691032 -10.724271 -58.120041 -4.529400 -36.073727 21.953146 15.481182 -1.299184 -2.866922 0.440497 24.996586 46.564236 59.758991 -17.053583 90.470398 0.233139 -37.020870 -56.422672 -11.032765 0.475102 -46.843586 19.306101 -3.420548 75.313080 -0.934891 -3.089086 -6.641880 -0.023337 0.875968 -12.848141 -23.703127 -5.182628 16.852818 3.837431 4.606532 6.552093 1.100104 18.417345 
-56.029308 42.388546 87.950058 13.608188 6.060937 -140.438492 0.000000 0.000000 0.000000 37.043270 -2.024884 -7.211824 26.170204 -1.455323 -31.085403 -10.959915 15.523095 -25.238350 -18.790577 -0.206111 24.994825 -32.368343 -98.513725 -7.920227 -57.851334 -4.563274 -35.636955 21.447073 15.184028 -1.409124 -0.777674 -0.319520 24.997580 46.970985 58.326763 -19.315552 91.603943 0.762166 -37.629032 -56.754337 -11.300733 0.654573 -47.282494 18.993370 -3.379832 75.351387 -0.934871 -3.110828 -5.822414 -0.047955 1.225006 -14.999922 -23.388315 -4.482412 20.548664 3.758662 4.676866 4.838852 0.727257 16.774769 
-56.044605 42.411003 87.999031 13.506455 6.355592 -140.174713 0.000000 0.000000 0.000000 37.101063 -2.072966 -7.290254 26.564886 -1.622086 -31.117588 -12.201884 15.483882 -25.631138 -19.039610 0.070112 24.997711 -35.956448 -98.669212 -4.355805 -57.597775 -4.667186 -35.654205 21.093561 15.560637 -1.387989 -1.292048 -0.117561 24.993998 46.295544 58.871681 -19.251015 91.361320 0.597279 -37.884090 -57.378288 -11.081798 0.586873 -47.729923 18.914675 -3.437871 75.321396 -0.934830 -3.127924 -5.510900 -0.045576 1.448289 -15.946755 -22.987446 -4.133991 22.025698 3.716281 4.669050 3.907754 0.601219 16.357075 
-56.047134 42.386620 88.022858 13.586303 6.355268 -140.007172 0.000000 0.000000 0.000000 37.497265 -2.325721 -7.115377 26.901472 -1.760207 -31.334900 -12.709510 15.221927 -25.943583 -19.244492 0.767500 24.996962 -39.057957 -99.530411 -1.585787 -57.483608 -4.739652 -35.633179 21.131922 15.326528 -1.422082 -1.786956 -0.003777 24.999069 45.186089 59.302757 -20.030846 92.126137 0.504170 -38.191254 -57.907063 -10.605997 0.370008 -47.793545 18.922928 -3.468894 75.400528 -0.934756 -3.104801 -5.558331 -0.064260 1.525482 -15.661397 -22.671211 -4.117373 21.654627 3.729845 4.722461 3.863797 0.628346 17.726044 
-56.023602 42.310551 88.025925 13.692683 6.476124 -139.768585 0.000000 0.000000 0.000000 37.682510 -2.500466 -7.057667 27.361460 -1.776520 -31.354725 -13.424564 15.116846 -26.071928 -18.997971 0.379167 24.994333 -42.830624 -99.863342 3.109503 -57.358398 -4.847883 -35.650295 20.554529 14.662741 -1.606258 -1.709736 -0.215597 24.999001 45.232609 59.498413 -20.079794 92.537537 0.437182 -38.297859 -58.417763 -10.287328 0.243191 -48.112183 19.012814 -3.575532 75.732330 -0.905866 -3.107124 -5.584241 -0.041832 1.567317 -15.906411 -22.301846 -3.956188 22.250912 3.706663 4.800222 3.350249 0.556453 18.753328 
-56.029472 42.252201 88.039642 13.913823 6.231102 -139.476669 0.000000 0.000000 0.000000 38.029140 -2.708849 -7.841225 28.241800 -3.197268 -30.795345 -13.185430 18.216267 -27.416708 -16.707211 -2.242965 24.998508 -46.089825 -100.545395 9.564845 -57.238018 -4.882436 -36.852909 21.053127 14.443844 -1.584171 -0.972282 -0.087006 24.996611 42.837486 59.995270 -21.958578 92.384445 0.620300 -39.839493 -58.840523 -10.700492 0.504660 -48.125706 18.906851 -3.556936 75.859497 -0.914759 -3.113442 -5.421319 -0.047688 1.712857 -14.960119 -22.390669 -4.172457 21.192875 3.739261 4.827084 3.687398 0.658561 20.112314 
-56.024265 42.171951 88.052963 13.982726 6.380485 -139.314545 0.000000 0.000000 0.000000 38.136177 -2.983444 -7.305312 28.283054 -2.784213 -30.851326 -12.727312 16.917257 -26.935818 -17.584017 -0.831848 24.991468 -49.197685 -100.971573 11.892444 -57.530903 -4.927062 -37.586632 21.188791 14.950039 -1.489051 -2.126008 0.538512 24.999128 41.636715 60.745415 -22.033895 92.441597 0.346270 -40.216991 -59.711021 -10.478353 0.450724 -48.526703 19.001133 -3.657207 76.161392 -0.857156 -3.110926 -5.359879 -0.060802 1.791912 -15.016017 -22.366941 -4.155802 21.191923 3.739182 4.856225 3.613696 0.667670 20.336227 
-56.038586 42.130280 88.033287 14.005312 6.344757 -138.784195 0.000000 0.000000 0.000000 38.271618 -3.169386 -7.032827 28.401413 -2.287201 -30.935825 -12.562769 15.909494 -26.426357 -18.522139 0.736613 24.993198 -50.609020 -101.342361 12.705747 -58.048454 -5.002010 -38.111706 21.930649 14.239644 -1.532518 -2.818922 1.239089 24.999079 40.580959 60.774361 -22.049740 92.756447 0.060077 -39.316551 -59.910110 -9.074528 -0.320936 -48.788601 18.814882 -3.628936 76.162132 -0.850673 -3.086969 -5.259964 -0.057882 2.005211 -14.608461 -22.634624 -4.261632 21.063890 3.730207 4.864505 3.375460 0.647387 20.634649 
-56.077549 42.141788 88.031647 13.985320 5.981895 -138.463531 0.000000 0.000000 0.000000 38.421680 -3.214421 -7.512226 28.534351 -3.587009 -30.476238 -11.315820 17.915804 -27.166836 -16.907740 -1.185429 24.990616 -52.073948 -101.618652 16.574768 -58.733322 -4.924853 -38.959965 22.306864 14.165433 -1.516250 -1.523835 0.032978 24.992397 42.243050 60.841797 -21.105139 93.606056 0.089599 -40.380241 -57.796310 -10.276887 0.186992 -48.297283 18.553619 -3.425804 76.008820 -0.886528 -3.025931 -5.734844 -0.077341 1.989017 -13.523918 -23.073080 -4.657872 19.784943 3.769333 4.846834 3.820126 0.742738 21.322277 
